<?xml version="1.0" encoding="UTF-8" standalone="no"?>
<!DOCTYPE svg PUBLIC "-//W3C//DTD SVG 1.1//EN" "http://www.w3.org/Graphics/SVG/1.1/DTD/svg11.dtd">
<svg width="533" height="168" viewBox="0 0 533 168" version="1.1" xmlns="http://www.w3.org/2000/svg" xmlns:xlink="http://www.w3.org/1999/xlink" xml:space="preserve" xmlns:serif="http://www.serif.com/" style="fill-rule:evenodd;clip-rule:evenodd;stroke-linejoin:round;stroke-miterlimit:2;">
    <g>
        <path d="M354.401,90.381L367.883,90.381L361.142,74.079L354.401,90.381ZM334.859,112.037L357.583,56.912L364.778,56.912L387.502,112.037L376.822,112.037L371.823,99.831L350.538,99.831L345.539,112.037L334.859,112.037Z" style="fill:rgb(35,31,32);fill-rule:nonzero;"/>
        <path d="M415.624,80.144C419.107,80.144 420.85,79.278 422.062,77.939C423.198,76.679 423.804,75.104 423.804,73.292C423.804,71.481 423.198,69.827 422.062,68.568C420.85,67.229 419.107,66.363 415.624,66.363L406.383,66.363L406.383,80.144L415.624,80.144ZM406.383,89.594L406.383,112.037L396.157,112.037L396.157,56.912L416.078,56.912C422.896,56.912 426.909,58.645 429.863,61.873C432.515,64.708 434.029,68.961 434.029,73.292C434.029,77.623 432.515,81.876 429.863,84.711C426.985,87.862 422.896,89.594 416.078,89.594L406.383,89.594Z" style="fill:rgb(35,31,32);fill-rule:nonzero;"/>
        <path d="M446.554,97.311C449.585,100.777 454.205,103.375 459.052,103.375C463.597,103.375 466.778,100.461 466.778,96.445C466.778,89.358 456.931,88.492 449.811,84.159C445.645,81.64 442.313,77.86 442.313,71.639C442.313,61.795 451.023,56.124 459.81,56.124C465.188,56.124 470.187,57.463 475.186,61.323L469.883,69.198C467.763,67.15 464.203,65.575 460.718,65.575C456.856,65.575 452.539,67.307 452.539,71.56C452.539,80.458 477.004,77.702 477.004,96.287C477.004,106.053 468.596,112.825 459.052,112.825C451.932,112.825 445.342,109.754 439.889,104.556L446.554,97.311Z" style="fill:rgb(35,31,32);fill-rule:nonzero;"/>
        <path d="M332.596,56.888L332.596,66.341L318.58,66.341L318.58,112.033L308.353,112.033L308.353,66.341L294.337,66.341L294.337,56.888L332.596,56.888Z" style="fill:rgb(35,31,32);fill-rule:nonzero;"/>
        <path d="M85.289,77.077C84.077,78.416 82.334,79.282 78.851,79.282L66.159,79.282L66.159,75.809C66.159,70.21 70.714,65.579 76.314,65.579L78.242,65.579C81.726,65.579 83.468,66.446 84.68,67.784C85.816,69.044 86.422,70.619 86.422,72.431L96.647,72.431C96.647,68.1 95.133,63.847 92.481,61.012C89.604,57.862 85.514,56.129 78.696,56.129L76.314,56.129C65.087,56.129 55.954,64.583 55.954,75.809L55.954,112.092L66.159,112.092L66.159,88.733L78.696,88.733C85.514,88.733 89.604,87 92.481,83.85C94.542,81.646 95.905,78.583 96.415,75.296L86.422,75.296C86.137,75.939 85.772,76.542 85.289,77.077Z" style="fill:rgb(35,31,32);fill-rule:nonzero;"/>
        <path d="M112.95,66.314L112.95,77.744L129.25,77.744L129.25,87.203L112.95,87.203L112.95,102.575L135.317,102.575L135.317,112.034L102.713,112.034L102.713,56.855L134.558,56.855L134.558,66.314L112.95,66.314Z" style="fill:rgb(35,31,32);fill-rule:nonzero;"/>
        <path d="M164.29,80.109C167.777,80.109 169.522,79.242 170.734,77.902C171.872,76.641 172.479,75.064 172.479,73.251C172.479,71.438 171.872,69.783 170.734,68.521C169.522,67.181 167.777,66.314 164.29,66.314L155.04,66.314L155.04,80.109L164.29,80.109ZM155.04,89.568L155.04,112.034L144.804,112.034L144.804,56.855L164.745,56.855C171.568,56.855 175.587,58.589 178.544,61.821C181.198,64.659 182.715,68.916 182.715,73.251C182.715,77.587 181.198,81.843 178.544,84.681C175.663,87.834 171.568,89.568 164.745,89.568L155.04,89.568Z" style="fill:rgb(35,31,32);fill-rule:nonzero;"/>
        <path d="M207.792,80.109C211.28,80.109 213.024,79.242 214.237,77.902C215.375,76.641 215.981,75.064 215.981,73.251C215.981,71.438 215.375,69.783 214.237,68.521C213.024,67.181 211.28,66.314 207.792,66.314L198.542,66.314L198.542,80.109L207.792,80.109ZM198.542,89.568L198.542,112.034L188.306,112.034L188.306,56.855L208.248,56.855C215.071,56.855 219.089,58.589 222.046,61.821C224.701,64.659 226.217,68.916 226.217,73.251C226.217,77.587 224.701,81.843 222.046,84.681C219.166,87.834 215.071,89.568 208.248,89.568L198.542,89.568Z" style="fill:rgb(35,31,32);fill-rule:nonzero;"/>
        <path d="M255.691,87.046L255.691,112.034L245.456,112.034L245.456,87.046L227.259,56.855L238.935,56.855L250.612,76.246L262.213,56.855L273.889,56.855L255.691,87.046Z" style="fill:rgb(35,31,32);fill-rule:nonzero;"/>
    </g>
</svg>
